<svg xmlns="http://www.w3.org/2000/svg" viewBox="0 0 721.96 270"><defs><style>.cls-1{fill:#FFFFFF;}</style></defs><g id="Layer_2" data-name="Layer 2"><g id="Layer_1-2" data-name="Layer 1"><path class="cls-1" d="M447.76,140.37a86.95,86.95,0,0,1-173.56,0H321a40.34,40.34,0,0,0,80,0ZM361,48.05a87,87,0,0,0-86.76,81.2h46.84a40.33,40.33,0,0,1,79.84,0h46.84A87,87,0,0,0,361,48.05ZM361,109a26,26,0,1,0,26,26A26,26,0,0,0,361,109Zm0-99A125,125,0,0,1,472.2,77.88,20,20,0,0,0,490,88.74H702a10,10,0,0,1,10,10v72.52a10,10,0,0,1-10,10H490a20,20,0,0,0-17.78,10.86,125.06,125.06,0,0,1-222.44,0A20,20,0,0,0,232,181.26H20a10,10,0,0,1-10-10V98.74a10,10,0,0,1,10-10H232a20,20,0,0,0,17.78-10.86A125,125,0,0,1,361,10m0-10A135,135,0,0,0,240.87,73.31,10,10,0,0,1,232,78.74H20a20,20,0,0,0-20,20v72.52a20,20,0,0,0,20,20H232a10,10,0,0,1,8.89,5.43,135,135,0,0,0,240.22,0,10,10,0,0,1,8.89-5.43H702a20,20,0,0,0,20-20V98.74a20,20,0,0,0-20-20H490a10,10,0,0,1-8.89-5.43A135,135,0,0,0,361,0ZM29.38,113.22h18.8c10.36,0,18.82,8.13,18.82,18.1s-8.46,18-18.82,18h-8v17.4H29.38Zm26.87,18c0-4-3.62-7.34-8.07-7.34h-8v14.81l8,0A7.78,7.78,0,0,0,56.25,131.22Zm14.47,8.83a27.84,27.84,0,1,1,27.79,27.72A27.95,27.95,0,0,1,70.72,140.05Zm44.79-.07a17,17,0,1,0-17,16.9A17,17,0,0,0,115.51,140Zm44.86,26.76L144.1,143.3v23.44H133.38V113.22H144.1v23.14l15-23.14h12.42l-17.17,26.2,19.06,27.32Zm28.95-42.93v10.46h18.46V145H189.32v11.05h21.52v10.69H178.57V113.22h32.27v10.59Zm6.71-15h-7.6L194.64,98h9.29Zm358.61.12v54.85H543.88V140.46l-15.4,22.42h-.07L513,140.46v23.31H502.21V108.92h.6l25.63,35.36L554,108.92Zm41.8,47.38H575l-3.42,7.47H560l25.56-54.85h.34l25.59,54.85H599.83Zm-4.18-9.16-6.51-14.31-6.54,14.31Zm52.39,16.63-17-25.3v25.3H616.86l0-53.52H634.3c10,0,18.19,7.7,18.19,17.33,0,6.87-4.15,12.88-9.89,14.91l15.2,21.28Zm-17.06-29.42,6.9,0a6.74,6.74,0,1,0,0-13.48h-6.9Zm67.87-13.44H682.31v42.86H671.52V120.91H658.33V110.25h37.13Z"/></g></g></svg>